static pose
version=1
nRows=1
nColumns=397
inDegrees=no
endheader
time	LASI_tx	LASI_ty	LASI_tz	RASI_tx	RASI_ty	RASI_tz	LPSI_tx	LPSI_ty	LPSI_tz	RPSI_tx	RPSI_ty	RPSI_tz	RTH2_tx	RTH2_ty	RTH2_tz	RTH3_tx	RTH3_ty	RTH3_tz	RLFC_tx	RLFC_ty	RLFC_tz	RMFC_tx	RMFC_ty	RMFC_tz	LTH1_tx	LTH1_ty	LTH1_tz	LTH2_tx	LTH2_ty	LTH2_tz	LTH3_tx	LTH3_ty	LTH3_tz	LLFC_tx	LLFC_ty	LLFC_tz	LMFC_tx	LMFC_ty	LMFC_tz	RTB1_tx	RTB1_ty	RTB1_tz	RTB2_tx	RTB2_ty	RTB2_tz	RTB3_tx	RTB3_ty	RTB3_tz	RLMAL_tx	RLMAL_ty	RLMAL_tz	RMMAL_tx	RMMAL_ty	RMMAL_tz	LTB1_tx	LTB1_ty	LTB1_tz	LTB2_tx	LTB2_ty	LTB2_tz	LTB3_tx	LTB3_ty	LTB3_tz	LLMAL_tx	LLMAL_ty	LLMAL_tz	LMMAL_tx	LMMAL_ty	LMMAL_tz	RCAL_tx	RCAL_ty	RCAL_tz	RTOE_tx	RTOE_ty	RTOE_tz	RMT5_tx	RMT5_ty	RMT5_tz	LCAL_tx	LCAL_ty	LCAL_tz	LTOE_tx	LTOE_ty	LTOE_tz	LMT5_tx	LMT5_ty	LMT5_tz	LACR_tx	LACR_ty	LACR_tz	RACR_tx	RACR_ty	RACR_tz	CLAV_tx	CLAV_ty	CLAV_tz	C7_tx	C7_ty	C7_tz	LASH_tx	LASH_ty	LASH_tz	LPSH_tx	LPSH_ty	LPSH_tz	RASH_tx	RASH_ty	RASH_tz	RPSH_tx	RPSH_ty	RPSH_tz	RUA1_tx	RUA1_ty	RUA1_tz	RUA2_tx	RUA2_ty	RUA2_tz	RUA3_tx	RUA3_ty	RUA3_tz	RLEL_tx	RLEL_ty	RLEL_tz	RMEL_tx	RMEL_ty	RMEL_tz	LUA1_tx	LUA1_ty	LUA1_tz	LUA2_tx	LUA2_ty	LUA2_tz	LUA3_tx	LUA3_ty	LUA3_tz	LLEL_tx	LLEL_ty	LLEL_tz	LMEL_tx	LMEL_ty	LMEL_tz	RFAsuperior_tx	RFAsuperior_ty	RFAsuperior_tz	RFAradius_tx	RFAradius_ty	RFAradius_tz	RFAulna_tx	RFAulna_ty	RFAulna_tz	LFAsuperior_tx	LFAsuperior_ty	LFAsuperior_tz	LFAradius_tx	LFAradius_ty	LFAradius_tz	LFAulna_tx	LFAulna_ty	LFAulna_tz	RTH1_tx	RTH1_ty	RTH1_tz	RHJC_tx	RHJC_ty	RHJC_tz	LHJC_tx	LHJC_ty	LHJC_tz	RKJC_tx	RKJC_ty	RKJC_tz	LKJC_tx	LKJC_ty	LKJC_tz	RAJC_tx	RAJC_ty	RAJC_tz	LAJC_tx	LAJC_ty	LAJC_tz	RSJC_tx	RSJC_ty	RSJC_tz	LSJC_tx	LSJC_ty	LSJC_tz	REJC_tx	REJC_ty	REJC_tz	LEJC_tx	LEJC_ty	LEJC_tz	pelvis_tilt	pelvis_list	pelvis_rotation	pelvis_tx	pelvis_ty	pelvis_tz	hip_flexion_r	hip_adduction_r	hip_rotation_r	knee_angle_r	knee_angle_r_beta	ankle_angle_r	subtalar_angle_r	mtp_angle_r	hip_flexion_l	hip_adduction_l	hip_rotation_l	knee_angle_l	knee_angle_l_beta	ankle_angle_l	subtalar_angle_l	mtp_angle_l	lumbar_extension	lumbar_bending	lumbar_rotation	arm_flex_r	arm_add_r	arm_rot_r	elbow_flex_r	pro_sup_r	wrist_flex_r	wrist_dev_r	arm_flex_l	arm_add_l	arm_rot_l	elbow_flex_l	pro_sup_l	wrist_flex_l	wrist_dev_l	pelvis_tilt_u	pelvis_list_u	pelvis_rotation_u	pelvis_tx_u	pelvis_ty_u	pelvis_tz_u	hip_flexion_r_u	hip_adduction_r_u	hip_rotation_r_u	knee_angle_r_u	knee_angle_r_beta_u	ankle_angle_r_u	subtalar_angle_r_u	mtp_angle_r_u	hip_flexion_l_u	hip_adduction_l_u	hip_rotation_l_u	knee_angle_l_u	knee_angle_l_beta_u	ankle_angle_l_u	subtalar_angle_l_u	mtp_angle_l_u	lumbar_extension_u	lumbar_bending_u	lumbar_rotation_u	arm_flex_r_u	arm_add_r_u	arm_rot_r_u	elbow_flex_r_u	pro_sup_r_u	wrist_flex_r_u	wrist_dev_r_u	arm_flex_l_u	arm_add_l_u	arm_rot_l_u	elbow_flex_l_u	pro_sup_l_u	wrist_flex_l_u	wrist_dev_l_u	addbrev_r.activation	addlong_r.activation	addlong_r.fiber_length	addmagDist_r.activation	addmagIsch_r.activation	addmagIsch_r.fiber_length	addmagMid_r.activation	addmagProx_r.activation	bflh_r.activation	bflh_r.fiber_length	bfsh_r.activation	edl_r.activation	edl_r.fiber_length	ehl_r.activation	ehl_r.fiber_length	fdl_r.activation	fdl_r.fiber_length	fhl_r.activation	fhl_r.fiber_length	gaslat_r.activation	gaslat_r.fiber_length	gasmed_r.activation	gasmed_r.fiber_length	glmax1_r.activation	glmax2_r.activation	glmax3_r.activation	glmed1_r.activation	glmed2_r.activation	glmed3_r.activation	glmin1_r.activation	glmin2_r.activation	glmin3_r.activation	glmin3_r.fiber_length	grac_r.activation	iliacus_r.activation	perbrev_r.activation	perbrev_r.fiber_length	perlong_r.activation	perlong_r.fiber_length	piri_r.activation	piri_r.fiber_length	psoas_r.activation	recfem_r.activation	recfem_r.fiber_length	sart_r.activation	semimem_r.activation	semimem_r.fiber_length	semiten_r.activation	semiten_r.fiber_length	soleus_r.activation	soleus_r.fiber_length	tfl_r.activation	tfl_r.fiber_length	tibant_r.activation	tibant_r.fiber_length	tibpost_r.activation	tibpost_r.fiber_length	vasint_r.activation	vasint_r.fiber_length	vaslat_r.activation	vaslat_r.fiber_length	vasmed_r.activation	vasmed_r.fiber_length	addbrev_l.activation	addlong_l.activation	addlong_l.fiber_length	addmagDist_l.activation	addmagIsch_l.activation	addmagIsch_l.fiber_length	addmagMid_l.activation	addmagProx_l.activation	bflh_l.activation	bflh_l.fiber_length	bfsh_l.activation	edl_l.activation	edl_l.fiber_length	ehl_l.activation	ehl_l.fiber_length	fdl_l.activation	fdl_l.fiber_length	fhl_l.activation	fhl_l.fiber_length	gaslat_l.activation	gaslat_l.fiber_length	gasmed_l.activation	gasmed_l.fiber_length	glmax1_l.activation	glmax2_l.activation	glmax3_l.activation	glmed1_l.activation	glmed2_l.activation	glmed3_l.activation	glmin1_l.activation	glmin2_l.activation	glmin3_l.activation	glmin3_l.fiber_length	grac_l.activation	iliacus_l.activation	perbrev_l.activation	perbrev_l.fiber_length	perlong_l.activation	perlong_l.fiber_length	piri_l.activation	piri_l.fiber_length	psoas_l.activation	recfem_l.activation	recfem_l.fiber_length	sart_l.activation	semimem_l.activation	semimem_l.fiber_length	semiten_l.activation	semiten_l.fiber_length	soleus_l.activation	soleus_l.fiber_length	tfl_l.activation	tfl_l.fiber_length	tibant_l.activation	tibant_l.fiber_length	tibpost_l.activation	tibpost_l.fiber_length	vasint_l.activation	vasint_l.fiber_length	vaslat_l.activation	vaslat_l.fiber_length	vasmed_l.activation	vasmed_l.fiber_length
  0.00000000	  0.62892467	  1.08290983	 -0.36268238	  0.37471979	  1.07545460	 -0.36267310	  0.55965831	  1.12637544	 -0.52558327	  0.44620915	  1.11925925	 -0.52653008	  0.34103243	  0.82024422	 -0.50522459	  0.33358200	  0.66645617	 -0.47712602	  0.33537600	  0.56197744	 -0.47272384	  0.45036648	  0.53718910	 -0.45923243	  0.69032929	  0.95602346	 -0.42237192	  0.65853929	  0.80591521	 -0.50705120	  0.67474447	  0.67021663	 -0.46799390	  0.67177066	  0.55151171	 -0.45629503	  0.56254373	  0.52017599	 -0.47221609	  0.37422270	  0.40632971	 -0.43724600	  0.31846663	  0.37003655	 -0.52666658	  0.37938280	  0.22042326	 -0.47176926	  0.33184360	  0.11934217	 -0.52904808	  0.42121351	  0.13004444	 -0.50456806	  0.64019990	  0.44088659	 -0.42542856	  0.68966183	  0.34201564	 -0.51612952	  0.64836779	  0.22796879	 -0.45554184	  0.68028452	  0.12465954	 -0.50784952	  0.59340284	  0.13089834	 -0.49092634	  0.38899650	  0.09720620	 -0.59697896	  0.37373324	  0.07614533	 -0.35245207	  0.28759183	  0.05269853	 -0.41288457	  0.61892024	  0.09759349	 -0.57988434	  0.64542445	  0.07915023	 -0.34365829	  0.73525576	  0.04368169	 -0.40385743	  0.63286269	  1.57736630	 -0.49484418	  0.34068521	  1.56526159	 -0.47225310	  0.45850758	  1.52938346	 -0.41124740	  0.49590057	  1.58032038	 -0.53577840	  0.64588712	  1.54478305	 -0.43189780	  0.66115953	  1.51400012	 -0.55177298	  0.32922851	  1.52743046	 -0.41851240	  0.32104334	  1.49618497	 -0.55458578	  0.24400815	  1.46782083	 -0.53286293	  0.18415752	  1.47677101	 -0.48021096	  0.10022223	  1.41951286	 -0.50504554	  0.04072466	  1.38134600	 -0.51374110	  0.07924765	  1.32208462	 -0.46532648	  0.73227983	  1.48964050	 -0.53777185	  0.80843129	  1.49726108	 -0.49165099	  0.88600826	  1.45247418	 -0.51729231	  0.95730838	  1.43370596	 -0.50774868	  0.92330886	  1.35257092	 -0.48662571	 -0.02704471	  1.39150551	 -0.42769154	 -0.05666535	  1.36527786	 -0.25145810	 -0.11600822	  1.36066961	 -0.28862472	  1.01314692	  1.41929204	 -0.43981176	  1.01954785	  1.36834401	 -0.25465942	  1.08814937	  1.38097088	 -0.27202886	  0.30613160	  0.95706563	 -0.41600222	  0.41203352	  0.97717349	 -0.43801933	  0.58721203	  1.00109870	 -0.44623831	  0.39287124	  0.54958327	 -0.46597813	  0.61715720	  0.53584385	 -0.46425556	  0.37652855	  0.12469330	 -0.51680807	  0.63684368	  0.12777894	 -0.49938793	  0.32513593	  1.51180772	 -0.48654909	  0.65352332	  1.52939158	 -0.49183539	  0.05998616	  1.35171531	 -0.48953379	  0.94030862	  1.39313844	 -0.49718719	  0.01471126	  0.16297632	 -1.51405604	  0.50347684	  1.05634285	 -0.37720331	  0.12070333	 -0.07109161	 -0.21077109	  0.09504101	  0.09504101	 -0.04084265	  0.00000000	  0.00000000	  0.15399143	 -0.03959796	 -0.08951697	  0.09109747	  0.09109747	 -0.09022526	  0.00000000	  0.00000000	  0.16320787	 -0.00231600	 -0.05046635	 -0.28650493	 -0.99269850	 -0.76578679	  1.31669717	  1.38103408	  0.00000000	  0.00000000	 -0.37046410	 -1.09136260	 -0.59970962	  1.35102588	  1.39160369	  0.00000000	  0.00000000	  0.00000000	  0.00000000	  0.00000000	  0.00000000	  0.00000000	  0.00000000	  0.00000000	  0.00000000	  0.00000000	  0.00000000	  0.00000000	  0.00000000	  0.00000000	  0.00000000	  0.00000000	  0.00000000	  0.00000000	  0.00000000	  0.00000000	  0.00000000	  0.00000000	  0.00000000	  0.00000000	  0.00000000	  0.00000000	  0.00000000	  0.00000000	  0.00000000	  0.00000000	  0.00000000	  0.00000000	  0.00000000	  0.00000000	  0.00000000	  0.00000000	  0.00000000	  0.00000000	  0.00000000	  0.00000000	  0.01000000	  0.01000000	  0.10000000	  0.01000000	  0.01000000	  0.10000000	  0.01000000	  0.01000000	  0.01000000	  0.10000000	  0.01000000	  0.01000000	  0.10000000	  0.01000000	  0.10000000	  0.01000000	  0.10000000	  0.01000000	  0.10000000	  0.01000000	  0.10000000	  0.01000000	  0.10000000	  0.01000000	  0.01000000	  0.01000000	  0.01000000	  0.01000000	  0.01000000	  0.01000000	  0.01000000	  0.01000000	  0.10000000	  0.01000000	  0.01000000	  0.01000000	  0.10000000	  0.01000000	  0.10000000	  0.01000000	  0.10000000	  0.01000000	  0.01000000	  0.10000000	  0.01000000	  0.01000000	  0.10000000	  0.01000000	  0.10000000	  0.01000000	  0.10000000	  0.01000000	  0.10000000	  0.01000000	  0.10000000	  0.01000000	  0.10000000	  0.01000000	  0.10000000	  0.01000000	  0.10000000	  0.01000000	  0.10000000	  0.01000000	  0.01000000	  0.10000000	  0.01000000	  0.01000000	  0.10000000	  0.01000000	  0.01000000	  0.01000000	  0.10000000	  0.01000000	  0.01000000	  0.10000000	  0.01000000	  0.10000000	  0.01000000	  0.10000000	  0.01000000	  0.10000000	  0.01000000	  0.10000000	  0.01000000	  0.10000000	  0.01000000	  0.01000000	  0.01000000	  0.01000000	  0.01000000	  0.01000000	  0.01000000	  0.01000000	  0.01000000	  0.10000000	  0.01000000	  0.01000000	  0.01000000	  0.10000000	  0.01000000	  0.10000000	  0.01000000	  0.10000000	  0.01000000	  0.01000000	  0.10000000	  0.01000000	  0.01000000	  0.10000000	  0.01000000	  0.10000000	  0.01000000	  0.10000000	  0.01000000	  0.10000000	  0.01000000	  0.10000000	  0.01000000	  0.10000000	  0.01000000	  0.10000000	  0.01000000	  0.10000000	  0.01000000	  0.10000000
